<svg xmlns="http://www.w3.org/2000/svg" width="700" height="270" viewBox="0 0 525 202.5" version="1.2"><defs><clipPath id="a"><path d="M135 161h54v31.813h-54zm0 0"/></clipPath><clipPath id="b"><path d="M171 190h5v2.813h-5zm0 0"/></clipPath><clipPath id="c"><path d="M171 166h8v26.813h-8zm0 0"/></clipPath></defs><path style="stroke:none;fill-rule:nonzero;fill:#b97a55;fill-opacity:1" d="M71.89 65.805c5.837-23.489 29.833-37.918 46.633-39.848 18.325-2.098 28.559 1.89 35.579 5.871 6.859 3.89 10.656 7.781 15.933 6.004 34.649-11.664 115.332-28.344 154.785 6.473 7.86 6.937 14.282 14.71 19.149 22.836 13.332-8.633 39.027-23.582 67.207-31.055C452.879 25.03 520.152 33.59 520.152 53.28c0 36.11-82.125 64.438-125.593 62.832-17.836-.656-30.895-3.36-39.88-6.148-3.245 29.86-31.5 53-91.152 43.805a10.41 10.41 0 0 1-2.46-.688c-.688-.348-1.243-.848-1.77-1.371.527.531 1.09 1.031 1.773 1.375-1.57-.184-2.96-1.086-4.254-1.965-1.3-.906-2.468-1.973-3.597-3.078-2.227-2.246-4.145-4.8-5.758-7.55-3.207-5.5-5.184-11.891-5.316-18.438a30.881 30.881 0 0 1 .03-2.48c-3.945 3.644-12.796 9.495-29.51 10.19-.5.368-.985.72-1.454 1.04-4.465 3.074-8.434 5.496-11.613 8.68h-.004a24.513 24.513 0 0 0-2.332 2.695l-.094.117c-.203.277-.398.562-.59.851l-.148.223c-.184.274-.356.555-.524.844l-.125.2h.004a25.245 25.245 0 0 0-2.031 4.495c-2.73 7.973-7.566 12.516-15.95 11.586l-.265.031c-.726.059-3.004-.007-7.562-2.101-5.977-2.746-6.813-5.028-6.813-5.028-3.101-3.02 2.18-7.793 1.195-15.128-.218-1.653-.574-3.344-1.015-5.051-.031-.125-.074-.25-.106-.38a71.64 71.64 0 0 0-.86-2.948c-.151-.473-.292-.946-.448-1.414l-.012-.028c-1.555-4.664-3.453-9.12-4.8-12.62-7.02-5.333-9.196-10.122-12.563-7.99-7.246 4.602-19.356 7.958-29.184 8.345-.383-.13-6.035-1.559-13.144-4.22 19.625-6.257 13.375-25.808 5.07-33.886C94.809 65.926 80.234 63.281 71.89 65.805"/><path style="stroke:none;fill-rule:nonzero;fill:#aa7253;fill-opacity:1" d="M170.05 153.512c1.72 0 4.317-.114 8.391-.114 15.266 0 11.829-25.757 26.348-31.859 14.524-6.098 20.438-15.8 35.836-33.086 4.664-5.238 9.137-7.406 13.227-7.406 9.402 0 16.777 11.453 19.777 23.262 4.305 16.937-22.465 34.3 19.355 40.859 3.317.516 6.395.762 9.266.762 33.352 0 37.996-32.977 43.445-49.567 1.57-4.781 5.754-6.554 11.832-6.554 16.813 0 48.098 13.566 78.516 14.5.973.03 1.95.046 2.918.046 13.46 0 26.148-2.828 37.082-6.585 24.824-11.32 44.11-26.985 44.11-44.489v-.144c0-.012-.005-.016-.005-.028-.101-4.964-4.496-9.207-11.656-12.605 1.281 1.457 2.028 2.898 2.16 4.309 0 0 3.2 33.542-52.113 44.335a144.23 144.23 0 0 1-27.684 2.688c-17.527 0-32.601-3.18-45.304-6.348-12.703-3.172-23.028-6.343-31.055-6.343-2.242 0-4.305.246-6.191.808-18.38 5.496-12.157 49.203-42.145 49.195-.527 0-1.074-.007-1.629-.035-31.832-1.597 4.211-59.617-43.46-66.379-3.4-.48-6.509-.707-9.356-.707-37.082 0-30.035 38.305-46.664 48.508-16.64 10.207-17.473 30.945-24.852 30.945-.558 0-1.164-.12-1.812-.378-9.153-3.594-4.403-31.137-.805-46.602 2.711-11.664-5.191-17.305-15.781-17.305-5.086 0-10.793 1.297-16.238 3.852-3.579 1.68-7.735 2.496-12.036 2.496-15.082 0-31.89-10.023-31.3-27.856.566-17.019 14.867-25.285 34.652-25.285 2.36 0 4.797.121 7.297.352.824.078 1.64.11 2.453.11 1.684 0 3.336-.145 4.96-.372-5.44-2.719-12.698-5.113-23.433-5.113-2.937 0-6.14.18-9.633.578-16.671 1.914-40.441 16.152-46.503 39.324 2.843-10.875 9.585-19.77 17.66-26.36-5.938 8.063-10.14 17.153-11.98 26.02.206-.004.41-.004.612-.004 8.32 0 19.286 3.7 28.985 13.141 4.234 4.117 7.937 11.227 7.941 18.035.008 4.176-1.39 8.242-4.91 11.434 1.606.183 3.125.27 4.555.27 6.23 0 10.914-1.567 15.148-3.137 4.235-1.567 8.024-3.137 12.461-3.137.84 0 1.707.055 2.602.184a8.48 8.48 0 0 1 2.582.78c3.687-1.26 7.39-2.66 10.851-4.405-2.617 2.168-5.75 4.375-8.398 6.148 2.46 2.355 4.215 6.11 5.574 10.453-4.848-3.973-7.137-7.383-9.527-7.383-.531 0-1.059.164-1.621.52.007 0 .011-.004.023-.008.555-.348 1.078-.512 1.59-.512h.012c1.902.008 3.734 2.16 6.847 5.051a.99.99 0 0 1 .102.086v.008a.122.122 0 0 1 .035.027 54.798 54.798 0 0 0 3.953 3.336c.258.66.535 1.363.824 2.09 1.746 4.406 4.008 9.89 5.403 15.3.441 1.708.797 3.4 1.015 5.052.082.64.125 1.265.125 1.87 0 2.325-.57 4.364-1.14 6.153 3.918 6.367 1.996 7.219 6.707 7.219m-6.887-.114c-.809-.789-1.05-1.699-.976-2.742a5.229 5.229 0 0 0-.012.344c0 .898.265 1.7.988 2.398M71.906 65.734c.004-.007.004-.027.008-.035-.004.016-.004.028-.008.035m.016-.062c.004-.016.008-.031.008-.043 0 .012-.004.027-.008.043m.016-.067c.003-.015.007-.035.015-.05-.008.015-.012.035-.016.05M71.974 65.473c0-.016.011-.04.011-.055 0 .023-.007.039-.011.055m.015-.063c.004-.023.012-.039.016-.058-.004.02-.012.043-.016.058m.016-.062c.004-.024.012-.04.016-.059-.004.016-.012.035-.016.059"/><path style="stroke:none;fill-rule:nonzero;fill:#e7e5e4;fill-opacity:1" d="M162.188 150.656c.09-1.25.62-2.703 1.156-4.363-.535 1.66-1.067 3.11-1.156 4.363m262.539-37.066h.007-.007m.21-.04c.012 0 .02-.003.032-.003-.012 0-.02.004-.031.004m.074-.008a.104.104 0 0 1 .047-.012c-.016.004-.032.004-.047.012m.16-.031c.027-.008.055-.012.078-.016-.023.004-.05.008-.078.016m.086-.016c16.8-3.031 34.93-8.488 50.789-15.726h-.004c-11.856 5.414-24.98 9.832-37.867 12.98-.012 0-.016 0-.028.004-.02.008-.03.008-.05.012-.016.004-.032.011-.047.015-.012 0-.024 0-.035.004a.293.293 0 0 1-.063.016h-.004a215.145 215.145 0 0 1-12.691 2.695"/><path style="stroke:none;fill-rule:nonzero;fill:#9e6c50;fill-opacity:1" d="M179.902 160.613c7.106 0 11.356-4.418 13.852-11.703a25.245 25.245 0 0 1 2.031-4.496h-.004a23.556 23.556 0 0 1 2.524-3.543c.414-.476.843-.941 1.289-1.387h.004a27.08 27.08 0 0 1 1.086-1.03c.004-.009.007-.009.007-.013a.06.06 0 0 0 .024-.015c2.847-2.57 6.242-4.711 10-7.278l.004-.003c.011-.012.023-.016.035-.024.004-.004.008-.004.016-.012a.326.326 0 0 0 .046-.03c.004-.005.016-.009.024-.017a.03.03 0 0 0 .015-.015c.012-.004.024-.008.032-.02.008 0 .011-.004.015-.011.016-.008.028-.02.043-.024.004-.008.012-.008.016-.012.012-.011.02-.015.039-.027 0 0 .004-.004.008-.012.015-.004.027-.015.043-.023 0 0 .004 0 .004-.008a.326.326 0 0 0 .047-.031c.007 0 .011-.004.015-.004a.14.14 0 0 1 .04-.027c0-.004.003-.004.007-.012.016-.008.031-.02.047-.031.469-.32.953-.672 1.453-1.04 16.707-.695 25.563-6.542 29.504-10.19.277-5.708 2.008-11.333 4.84-16.15 3.246-5.538 7.77-10.097 12.953-13.433-3.68 4.953-6.996 9.957-9.234 15.32-2.262 5.336-3.415 10.97-3.29 16.63.122 5.652 1.465 11.304 3.727 16.667a53.54 53.54 0 0 0 4.07 7.805c.77 1.266 1.645 2.465 2.575 3.629.46.582.96 1.144 1.488 1.668.527.531 1.09 1.031 1.773 1.375-.683-.344-1.246-.844-1.773-1.375.527.523 1.082 1.023 1.77 1.371.574.238 1.21.441 1.917.59a.079.079 0 0 1 .032-.016c.171.035.328.082.511.114.672.101 1.336.203 2 .296 8.243 1.188 15.871 1.739 22.91 1.739 9.54 0 17.985-1.02 25.383-2.89-.004 0-.004.003-.004.003 25.364-6.414 38.372-22.82 40.77-42.164-1.477 11.902-6.977 22.691-16.887 30.726 6.805-12.582 9.258-27.671 10.617-40.238 20.024 8.7 42.442 10.98 60.47 10.98 19.968 0 34.558-2.804 34.558-2.804-1.723.469-3.453.91-5.168 1.332 12.887-3.148 26.012-7.566 37.867-12.98-10.934 3.757-23.621 6.585-37.082 6.585-.969 0-1.945-.015-2.918-.046-30.418-.934-61.703-14.5-78.516-14.5-6.078 0-10.261 1.773-11.832 6.554-5.449 16.59-10.093 49.567-43.445 49.567-2.871 0-5.95-.246-9.266-.762-41.82-6.559-15.05-23.922-19.355-40.86-3-11.808-10.375-23.261-19.777-23.261-4.09 0-8.563 2.168-13.227 7.406-15.398 17.285-21.313 26.988-35.836 33.086-14.52 6.102-11.082 31.86-26.348 31.86-4.074 0-6.671.113-8.39.113-4.711 0-2.79-.852-6.707-7.219-.535 1.66-1.067 3.113-1.156 4.363-.075 1.043.167 1.953.976 2.742 0 0 .16.415.793 1.106.852.922 2.59 2.344 6.02 3.922a.056.056 0 0 0 .027.008c.02.011.035.023.059.035a.12.12 0 0 1 .03.008c.032.015.06.027.09.043h.005l.203.093c.007 0 .007 0 .011.008 2.063.914 3.633 1.406 4.786 1.66.937.211 1.597.258 2.023.258.129 0 .238 0 .328-.012l.266-.03a19.58 19.58 0 0 0 2.097.116m258.047-49.812h.004-.004m.067-.016c.011-.004.023-.004.035-.004-.012 0-.024.004-.035.004m.082-.02c.02-.003.03-.003.05-.011-.015.008-.035.008-.05.012m-83.512-.016c.004-.02.004-.043.008-.063-.004.02-.004.043-.008.063m.008-.074c.008-.02.008-.043.008-.059 0 .016 0 .04-.008.059m.011-.078c0-.016.004-.04.004-.055 0 .023-.004.039-.004.055m.004-.07c.008-.016.008-.04.012-.055-.004.02-.004.035-.012.054m.012-.078c.004-.015.004-.031.004-.047 0 .016 0 .032-.004.047m.012-.074c0-.016 0-.031.004-.047-.004.016-.004.031-.004.047m.004-.078c.004-.012.004-.027.004-.043 0 .016 0 .031-.004.043m.011-.067c.004-.015.004-.03.004-.043 0 .012 0 .028-.004.043m.008-.082c0-.007 0-.023.008-.035-.008.012-.008.028-.008.035m.012-.082v-.027.027M155.703 114.703c-1.36-4.344-3.113-8.098-5.574-10.453-2.781 1.863-5.024 3.246-5.574 3.59.562-.356 1.09-.52 1.62-.52 2.391 0 4.68 3.41 9.528 7.383m-53.476-2.738c.304-.102.601-.2.894-.305-.285.106-.59.203-.894.305m.91-.313h.011-.011m9.332-2.773c9.039 0 18.207-.73 26.71-3.563 2.743-.914 5.618-1.82 8.497-2.808a8.48 8.48 0 0 0-2.582-.781 18.194 18.194 0 0 0-2.602-.184c-4.437 0-8.226 1.57-12.46 3.137-4.235 1.57-8.919 3.136-15.15 3.136-1.429 0-2.948-.086-4.554-.27-.5.446-1.031.884-1.617 1.294 1.25.027 2.5.039 3.758.039"/><path style="stroke:none;fill-rule:nonzero;fill:#817985;fill-opacity:1" d="M64.129 73.734S50.566 85.207 27.176 91.797c-24.332 6.863-24.867 15.836-9.2 19.945 12.223 3.203 13.333 13.488 47.696 5.524 40.52-9.391 41.465-14.258 41.465-14.258-6.676-28.29-37.082-29.625-43.008-29.274"/><path style="stroke:none;fill-rule:nonzero;fill:#403d42;fill-opacity:1" d="M48.566 103.785c.246.719 2.18.695 4.32-.047 2.141-.738 3.68-1.918 3.434-2.633-.246-.71-2.175-.687-4.32.051-2.14.742-3.676 1.922-3.434 2.63M38.824 97.707c.239.711 2.176.691 4.313-.05 2.148-.743 3.68-1.923 3.433-2.63-.238-.715-2.175-.695-4.316.047-2.137.742-3.676 1.918-3.43 2.633"/><path style="stroke:none;fill-rule:nonzero;fill:#766f7a;fill-opacity:1" d="M66.406 100.914c8.504-2.98 26.067-11.437 32.102-14.379a32.97 32.97 0 0 1 3.719 4.754c-3.403 1.871-11.965 6.29-23.868 10.375-19.367 6.64-27.609 7.688-27.914 6.09-.308-1.606 5.668-3.219 15.961-6.84M77.145 75.04c-3.16 2.233-10.56 7.155-20.926 12.12-17.418 8.332-25.02 10.215-25.48 8.75-.458-1.46 4.964-3.629 14.206-8.14C50.918 84.855 61.72 78.2 68.7 73.8c2.34.16 5.258.516 8.446 1.24"/><path style="stroke:none;fill-rule:nonzero;fill:#ece6f5;fill-opacity:1" d="M112.79 59.523c0 4.844 4.058 8.774 9.062 8.774 5.011 0 9.07-3.93 9.07-8.774 0-4.847-4.059-8.777-9.07-8.777-5.004 0-9.063 3.93-9.063 8.777"/><path style="stroke:none;fill-rule:nonzero;fill:#403d42;fill-opacity:1" d="M116.25 61.496c0 2.379 1.996 4.309 4.45 4.309 2.456 0 4.445-1.93 4.445-4.309 0-2.375-1.989-4.3-4.446-4.3-2.453 0-4.449 1.925-4.449 4.3"/><path style="stroke:none;fill-rule:nonzero;fill:#ece6f5;fill-opacity:1" d="M120.7 58.309c0 1.457 1.214 2.629 2.718 2.629 1.496 0 2.71-1.172 2.71-2.63 0-1.449-1.214-2.62-2.71-2.62-1.504 0-2.719 1.171-2.719 2.62M121.809 62.555c0 .582.488 1.054 1.09 1.054.601 0 1.09-.472 1.09-1.054 0-.586-.489-1.059-1.09-1.059-.602 0-1.09.473-1.09 1.059"/><path style="stroke:none;fill-rule:nonzero;fill:#fbc983;fill-opacity:1" d="M144.555 107.84c3.367-2.133 5.543 2.656 12.562 7.988 1.801 4.68 4.602 11.094 6.227 17.39-13.012-6.964-19.254-13.85-29.727-14.644-4.68-.355-11.203-1.058-18.277-2.386 9.832-.383 21.96-3.739 29.215-8.348M211.21 130.805c.47-.32.954-.672 1.454-1.04 16.715-.695 25.566-6.546 29.512-10.19a30.881 30.881 0 0 0-.031 2.48c.132 6.547 2.109 12.937 5.316 18.437 1.613 2.75 3.531 5.305 5.758 7.551.234.234 2.82 2.742 4.094 3.414-4.508 1.004-21.778 1.156-61.532-7.043 3.5-6.047 8.938-9.144 15.43-13.61"/><path style="stroke:none;fill-rule:nonzero;fill:#d1cfcd;fill-opacity:1" d="M145.117 122.215c-.004-.008-.012-.012-.015-.016-3.625-1.957-7.196-3.297-11.485-3.625-4.68-.355-11.203-1.058-18.277-2.386 7.074 1.328 13.597 2.03 18.277 2.386 4.293.328 7.871 1.684 11.5 3.64"/><path style="stroke:none;fill-rule:nonzero;fill:#93664f;fill-opacity:1" d="M157.941 117.918"/><path style="stroke:none;fill-rule:nonzero;fill:#d0a773;fill-opacity:1" d="M145.102 122.2a12.01 12.01 0 0 1-2.184-3.934c-.324-1 .371-2.43 1.473-2.598.8-.117 1.593-.176 2.386-.176 3.782 0 7.465 1.238 11.164 2.426-.293-.73-.566-1.426-.824-2.09-5.847-4.437-8.328-8.508-10.941-8.508-.524 0-1.059.168-1.621.52-2.364 1.504-5.25 2.87-8.407 4.05-.015.005-.039.016-.054.02-.004 0-.008.008-.016.008l-.043.016c-.004 0-.008.004-.02.004-.011.003-.019.011-.03.015-.012.008-.02.008-.032.012s-.016.004-.027.012a.145.145 0 0 0-.035.007c-.004.008-.012.008-.02.008-.016.008-.031.016-.047.02h-.008c-6.445 2.36-13.964 3.918-20.476 4.175 7.074 1.329 13.597 2.032 18.277 2.387 4.29.328 7.86 1.668 11.485 3.625"/><path style="stroke:none;fill-rule:nonzero;fill:#d1cfcd;fill-opacity:1" d="M220.04 148.879c-.009 0-.02 0-.024-.004.004.004.015.004.023.004m-.062-.008c-.008 0-.024 0-.032-.008a.053.053 0 0 0 .032.008m-.055-.008c-.012 0-.016-.004-.027-.004.011 0 .015.004.027.004M219.71 148.828c-.016 0-.031 0-.043-.004.012 0 .027.004.043.004m-.066-.012c-.012 0-.024 0-.032-.004.008.004.02.004.032.004m-.06-.004c-6.839-1.093-14.733-2.523-23.804-4.398 9.07 1.875 16.965 3.305 23.805 4.399"/><path style="stroke:none;fill-rule:nonzero;fill:#d0a773;fill-opacity:1" d="M248.914 151.914c2.973 0-22.656-2.215-35.215-8.754-2.324-1.21 4.856-2.422 8.754-3.504 8.41-2.336 12.848-2.14 20.356-11.437a35.728 35.728 0 0 1-.664-6.164 34.996 34.996 0 0 1 .023-2.48c-3.941 3.648-12.797 9.495-29.504 10.19-.5.368-.984.72-1.453 1.04-6.492 4.465-11.93 7.562-15.43 13.61 9.07 1.874 16.965 3.304 23.805 4.398h.027c.008.003.02.003.032.003.007.008.015.008.023.008a.146.146 0 0 0 .043.004c.004.004.016.004.02.004a.729.729 0 0 0 .097.016c.024 0 .047.007.067.011.011 0 .015.004.027.004h.023c.008.008.024.008.032.008a.12.12 0 0 0 .039.004c.004.004.015.004.023.004 13.254 2.101 22.508 2.887 28.621 3.031.102.004.184.004.254.004"/><path style="stroke:none;fill-rule:nonzero;fill:#9c8d7e;fill-opacity:1" d="M188.254 180.387c-1.152-2.203-11.14-13.153-10.45-19.89 0 0-2.14.542-7.827-2.071-5.977-2.746-6.813-5.028-6.813-5.028s-1.723 3.801-3.644 5.473c-1.918 1.672-23.833 8.012-23.833 8.012s-1.84.465-1.042 1.922c.796 1.453 1.984.289 4.44-.075 2.454-.359 19.302-5.863 22.477-6.734.532-.148.891.211.692.809-4.195 4.793-16.484 16.23-16.484 16.23s-1.38 1.305.011 2.192c1.399.89 1.88-.711 3.86-2.215 1.972-1.508 12.859-11.621 15.507-13.598.336-.254.59-.078.637.309.067 2.695-8.789 21.933-8.789 21.933s-.746 1.754.883 2.004c1.633.258 1.437-1.398 2.652-3.574 1.215-2.172 7.84-15.684 9.098-18.746.07-.192.375-.969.738-.219 1.016 3.336.285 23.29.285 23.29s0 1.901 1.598 1.491c1.602-.41.781-1.863 1.043-4.34.262-2.476 1.062-17.515 1.016-20.828-.004-.457.336-.836.879-.257 3.257 3.296 12.453 17.742 12.453 17.742s1.05 1.582 2.156.347c1.098-1.234-.387-1.976-1.543-4.18"/><g clip-path="url(#a)"><path style="stroke:none;fill-rule:nonzero;fill:#7a6c62;fill-opacity:1" d="M139.086 168.73c2.453-.359 19.3-5.863 22.476-6.734.532-.148.891.211.692.809-4.195 4.793-16.484 16.23-16.484 16.23s-1.38 1.305.011 2.192c1.399.89 1.88-.711 3.86-2.215 1.972-1.508 12.859-11.621 15.507-13.598.336-.254.59-.078.637.309.067 2.695-8.789 21.933-8.789 21.933s-.746 1.754.883 2.004c1.633.258 1.437-1.398 2.652-3.574 1.215-2.172 7.84-15.684 9.098-18.746.07-.192.375-.969.738-.219 1.016 3.336.285 23.29.285 23.29s0 1.901 1.598 1.491c1.602-.41.781-1.863 1.043-4.34.262-2.476 1.062-17.515 1.016-20.828-.004-.457.336-.836.879-.257 3.257 3.296 12.453 17.742 12.453 17.742s.328.496.808.715c-6.84.093-16.664 8.246-16.664 8.246-4.586-4.543-14.812-1.942-14.812-1.942-2.703-8.043-12.04-9.527-12.04-9.527-3.449-6.164-9.624-12.258-9.628-12.266.785.297 1.922-.441 3.78-.715"/></g><path style="stroke:none;fill-rule:nonzero;fill:#e7e5e4;fill-opacity:1" d="M156.973 191.238c-.008-.004-.008-.015-.012-.023v.004l.012.02m0 0c.004 0 1.773-.442 4.156-.641 0-.004.004-.004.004-.004-2.39.199-4.156.644-4.16.644"/><path style="stroke:none;fill-rule:nonzero;fill:#72665e;fill-opacity:1" d="M156.973 191.238c.004 0 1.77-.445 4.16-.644 1.535-3.281 9.41-22.887 9.234-23.473-.117-.234-.226-.32-.32-.32-.078 0-.149.054-.211.133a1.99 1.99 0 0 0-.203.39c0 .004-.004.008-.004.016l-.008.004v.004a44.46 44.46 0 0 1-.754 1.71v.005c-.004.007-.012.011-.012.023-1.457 3.195-4.261 8.965-6.25 12.957-.312.625-.609 1.215-.875 1.738l-.035.07c-.53 1.04-.937 1.837-1.164 2.235-.043.078-.078.152-.12.226-.079.149-.145.301-.216.442l-.117.262-.137.336c-.16.39-.293.75-.421 1.058-.313.79-.606 1.278-1.333 1.278-.046 0-.093 0-.148-.004-.05-.008-.105-.012-.16-.024h-.016a1.63 1.63 0 0 1-.531-.176c-.094.582-.219 1.16-.371 1.73.004.009.004.02.012.024"/><path style="stroke:none;fill-rule:nonzero;fill:#e7e5e4;fill-opacity:1" d="M149.215 183.121c0-.008.008-.008.012-.012a18.935 18.935 0 0 0-3.665-1.265c.747.176 2.106.554 3.653 1.277"/><path style="stroke:none;fill-rule:nonzero;fill:#908477;fill-opacity:1" d="M146.523 181.484c.891 0 1.516-1.23 3.051-2.418-1.36 1.051-2 2.114-2.75 2.344l.004.004a.927.927 0 0 1-.324.055c-.172 0-.356-.043-.559-.149.215.114.403.164.578.164"/><path style="stroke:none;fill-rule:nonzero;fill:#72665e;fill-opacity:1" d="M149.227 183.11c2.14-1.833 16.566-17.012 16.558-17.387-.031-.262-.16-.43-.34-.43a.49.49 0 0 0-.297.121c-2.648 1.977-13.535 12.09-15.507 13.598a.226.226 0 0 0-.067.054c-1.535 1.188-2.16 2.418-3.05 2.418-.176 0-.364-.05-.579-.164l-.12.196-.262.328c.757.172 2.12.55 3.664 1.265"/><path style="stroke:none;fill-rule:nonzero;fill:#e7e5e4;fill-opacity:1" d="M136.773 170.984h.008a44.161 44.161 0 0 0-1.476-1.53c.058.05.62.612 1.468 1.53"/><path style="stroke:none;fill-rule:nonzero;fill:#72665e;fill-opacity:1" d="M136.781 170.984c7.887-2.87 25.281-8.52 25.5-8.632-.054-.243-.234-.387-.496-.387a.765.765 0 0 0-.222.031c-3.176.871-20.024 6.375-22.477 6.734-1.555.235-2.61.786-3.367.786-.043 0-.086 0-.121-.004a1.186 1.186 0 0 1-.293-.067v.008c.058.05.617.61 1.476 1.531"/><g clip-path="url(#b)"><path style="stroke:none;fill-rule:nonzero;fill:#e7e5e4;fill-opacity:1" d="m171.785 193.18-.094-.094v.016l.094.078m.004 0c.012-.012 1.566-1.293 3.856-2.844v-.008c-2.293 1.559-3.844 2.848-3.856 2.852"/></g><path style="stroke:none;fill-rule:nonzero;fill:#908477;fill-opacity:1" d="M171.832 191.96c.125 0 .266-.015.418-.058-.074.016-.145.032-.21.043-.071.004-.142.008-.208.008-.059 0-.11 0-.164-.008v.004c.055.004.105.012.164.012m1.445-1.664c0-.442-.043-.973-.043-1.582 0 .61.043 1.14.043 1.582m1.036-23.254c0-.11-.004-.215-.004-.309v-.015.015c0 .094.004.2.004.309"/><g clip-path="url(#c)"><path style="stroke:none;fill-rule:nonzero;fill:#72665e;fill-opacity:1" d="M171.785 193.18h.004c.012-.004 1.563-1.293 3.856-2.852.02-.555-1.153-17.871 2.906-19.629-.207-.277-.406-.55-.598-.816-.933-1.262-1.777-2.336-2.433-3.059a9.973 9.973 0 0 0-.333-.347c-.199-.211-.367-.297-.503-.297a.318.318 0 0 0-.254.132c0 .004-.008.016-.012.028l-.066.133c-.008.015-.012.035-.024.05-.008.063-.02.133-.02.196v.015c0 .094.005.2.005.309 0 3.844-.762 18.117-1.02 20.52-.043.41-.059.796-.059 1.152 0 .61.043 1.14.043 1.582 0 .844-.152 1.379-1.027 1.605a1.534 1.534 0 0 1-.418.059c-.059 0-.11-.008-.164-.012.012.38.012.758.023 1.137l.094.094"/></g><path style="stroke:none;fill-rule:nonzero;fill:#bdbdba;fill-opacity:1" d="M398.172 116.184c7.957 0 17.004-.903 26.484-2.579-9.484 1.676-18.527 2.579-26.484 2.579a90.83 90.83 0 0 1-3.613-.07c-17.836-.657-30.895-3.36-39.88-6.15-.007.028-.007.056-.011.075.004-.02.004-.047.012-.074 8.984 2.789 22.043 5.492 39.879 6.148a90.83 90.83 0 0 0 3.613.07m26.484-2.578c.024-.003.051-.011.07-.015-.023.004-.046.012-.07.015m.078-.015c.067-.012.137-.028.204-.04-.067.013-.137.028-.204.04m.235-.043c.015-.004.027-.004.043-.004-.016 0-.028 0-.043.004m.09-.016c.011 0 .027-.004.035-.004-.016 0-.024.004-.035.004m.09-.015c.007-.004.019-.004.023-.004-.004 0-.016 0-.024.004m.102-.02h.008-.008m-70.664-2.742v-.004.004m.008-.067v-.011.011m.008-.07c.003-.004.003-.015.003-.02 0 .005 0 .016-.003.02m.007-.074v-.016.016m.012-.07v-.024.024m.004-.07c0-.012.008-.016.008-.028 0 .008-.008.023-.008.027m.012-.074v-.031.031m.004-.074c.007-.004.007-.016.007-.024 0 .008 0 .016-.007.024m.011-.067c0-.011.004-.027.004-.039 0 .016-.004.024-.004.04m.012-.075c0-.015 0-.031.004-.047-.004.016-.004.032-.004.047"/><path style="stroke:none;fill-rule:nonzero;fill:#adadaa;fill-opacity:1" d="M398.172 116.184c7.957 0 17-.903 26.484-2.579.024-.003.047-.011.07-.015h.008c.067-.012.137-.028.204-.04.011 0 .019-.003.03-.003.016-.004.028-.004.044-.004.015-.008.031-.008.047-.012.011 0 .02-.004.035-.004a.138.138 0 0 1 .054-.011c.008-.004.02-.004.024-.004.027-.008.055-.012.078-.016h.008a215.145 215.145 0 0 0 12.691-2.695c-14.226 3.46-28.16 5.383-39.785 5.383-1.23 0-2.43-.024-3.605-.07-17.836-.657-30.895-3.36-39.88-6.15-.007.028-.007.056-.011.075.004-.02.004-.047.012-.074 8.984 2.789 22.043 5.492 39.879 6.148a90.83 90.83 0 0 0 3.613.07M438.05 110.782c.015-.004.031-.011.047-.015a.326.326 0 0 0-.047.015m.097-.027c.012-.004.016-.004.028-.004-.008 0-.024 0-.028.004"/><path style="stroke:none;fill-rule:nonzero;fill:#7f5d4b;fill-opacity:1" d="M337.7 141.48c9.91-8.035 15.41-18.824 16.886-30.726v-.004c.004-.02.004-.043.008-.063v-.011c.008-.02.008-.043.008-.059.003-.004.003-.015.003-.02 0-.015.004-.03.004-.054v-.016c.008-.02.008-.035.012-.054v-.024c.004-.015.004-.031.004-.047 0-.004.008-.02.008-.027 0-.016 0-.031.004-.047v-.031c.004-.012.004-.027.004-.043.007-.008.007-.016.007-.024.004-.015.004-.03.004-.043 0-.015.004-.023.004-.039 0-.007 0-.023.008-.035 0-.015 0-.031.004-.047v-.027c.004-.02.004-.047.012-.074 8.984 2.789 22.043 5.492 39.879 6.148 1.175.047 2.375.07 3.605.07 11.625 0 25.559-1.921 39.785-5.382h.004a.293.293 0 0 0 .063-.016c.011 0 .023-.004.035-.004a.326.326 0 0 1 .047-.015c.015-.004.035-.004.05-.012.004-.004.02-.004.028-.004 1.715-.422 3.445-.863 5.168-1.332 0 0-14.59 2.805-34.559 2.805-18.027 0-40.445-2.282-60.469-10.98-1.359 12.566-3.812 27.655-10.617 40.237"/><path style="stroke:none;fill-rule:nonzero;fill:#403d42;fill-opacity:1" d="M8.098 101.727c-2.43 4.03 1.277 7.761 9.879 10.015 12.222 3.203 13.332 13.488 47.695 5.524 32.582-7.551 39.57-12.176 41.062-13.696-5.277 6.274-40.421 19.239-52.46 20.926-12.184 1.715-18.278 2.399-26.227-4.27-6.977-5.855-8.938-5.195-16.16-8.765-5.875-2.902-6.461-6.805-3.79-9.734"/><path style="stroke:none;fill-rule:nonzero;fill:#403d42;fill-opacity:1" d="M106.734 103.57c.364-.37.403-.562.403-.562-6.676-28.29-37.082-29.625-43.008-29.274 1.726-2.5 7.762-7.93 7.762-7.93 8.343-2.523 22.918.122 35.406 12.274 8.305 8.078 14.555 27.629-5.07 33.887 0 0-2.922-1.219-5.633-2.02 4.918-2.382 8.68-4.632 10.14-6.375"/><path style="stroke:none;fill-rule:nonzero;fill:#887661;fill-opacity:1" d="M251.176 159.777a230.482 230.482 0 0 1 11.84-6.12c.171.034.328.081.511.113 20.328 3.136 37.004 2.503 50.293-.856-3 7.004-12.277 12.969-19.793 16.879 0 0-18.703 9.383-22.285 16.238 0 0-2.12-4.988.645-8.011 4.394-4.813-6.844 1.054-8.742 6.91 0 0-3.012-5.27 1.18-10.461 2.226-2.754-1.653-1.973-3.712-1.063-4.465 1.973-6.527 7.778-6.527 7.778s-3.3-5.207 1.238-9.633c2.738-2.676-.398-3.278-2.804-1.758-3.223 2.043-6.098 5.348-6.32 8.219 0 0-2.579-4.856.405-9.5 2.133-3.313-3.109-1.262-6.48 4.699 0 0-.457-7.34 10.55-13.434"/><path style="stroke:none;fill-rule:nonzero;fill:#e7e5e4;fill-opacity:1" d="M243.184 169.684c.007 0 .011-.004.015-.012 1.653-1.781 3.238-2.734 3.969-2.734.312 0 .469.175.414.527l.008-.004c.055-.356-.102-.527-.414-.527-.738 0-2.336.957-3.992 2.75m-.579-2.387c1.47-2.309 4.036-4.996 8.493-7.477-4.457 2.48-7.024 5.168-8.493 7.477m8.512-7.488.016-.004-.016.004m62.645-6.762v-.008.008m.043-.102v-.004.004"/><path style="stroke:none;fill-rule:nonzero;fill:#7f705d;fill-opacity:1" d="M240.8 171.566a15.926 15.926 0 0 1 2.384-1.882c1.656-1.793 3.254-2.75 3.992-2.75.312 0 .469.171.414.527 2.894-1.16 5.988-2 8.851-3.09 7.48-2.832 14.883-2.39 22.684-2.527.488-.008 1.078-.016 1.754-.016 5.508 0 16.457.516 17.871 5.336 6.223-3.703 12.527-8.55 14.98-14.055.012-.023.024-.043.032-.062v-.008a.079.079 0 0 0 .015-.031c.008-.012.008-.02.012-.031.004-.012.012-.02.016-.032v-.004c.004-.011.011-.015.015-.027-7.398 1.871-15.843 2.89-25.382 2.89-7.598 0-15.899-.644-24.91-2.034-.184-.032-.34-.079-.512-.114a230.482 230.482 0 0 0-11.84 6.121.263.263 0 0 0-.043.028l-.016.004c-.004.004-.015.011-.02.011-4.456 2.48-7.023 5.168-8.492 7.477-.007.004-.007.016-.011.02-1.078 1.699-1.567 3.19-1.793 4.25"/><path style="stroke:none;fill-rule:nonzero;fill:#887661;fill-opacity:1" d="M253.387 169.59a4.184 4.184 0 0 0-.367.203c-3.223 2.043-6.098 5.348-6.32 8.219 0 0-1.15-2.18-1.016-5.008 2.238-1.504 4.984-2.559 7.703-3.414"/><path style="stroke:none;fill-rule:nonzero;fill:#96836d;fill-opacity:1" d="M273.957 180.637c5.336-5.727 16.453-11.711 20.063-13.57-.715-.532-3.422-.75-4.348-.82l-.735-.067c-1.62-.145-3.382-.215-5.527-.215-1.445 0-2.898.027-4.344.058l-1.59.032c-.71.015-1.417.027-2.117.03-4.851.063-9.433.122-14.199 1.61-.406.133-.832.258-1.273.383.031.926-.485 1.914-1.547 2.953-1.461 1.426-1.918 2.934-1.934 4.227 1.203-1.836 3.004-3.887 5.473-4.973 1.02-.453 2.68-.98 3.988-.98 1.578 0 2.192.804 2.418 1.285.66 1.39-.453 2.77-.82 3.226-1.55 1.922-1.926 3.84-1.871 5.38 2.746-3.407 7.125-6.212 8.902-6.212.781 0 1.453.418 1.746 1.09.578 1.324-.629 2.653-1.277 3.36-.824.894-1.04 2.09-1.008 3.203"/><path style="stroke:none;fill-rule:nonzero;fill:#e7e5e4;fill-opacity:1" d="M242.133 121.2c0-.544.015-1.083.043-1.626h-.008.008a32.23 32.23 0 0 0-.043 1.625"/><path style="stroke:none;fill-rule:nonzero;fill:#93664f;fill-opacity:1" d="M261.07 153.086c-.683-.344-1.246-.844-1.773-1.375a18.825 18.825 0 0 1-1.488-1.668c-.93-1.164-1.805-2.363-2.575-3.629a53.54 53.54 0 0 1-4.07-7.805c-2.262-5.363-3.605-11.015-3.726-16.668-.125-5.66 1.027-11.293 3.289-16.629 2.238-5.363 5.554-10.367 9.234-15.32-5.184 3.336-9.707 7.895-12.953 13.434-2.832 4.816-4.563 10.441-4.84 16.148h.008a32.23 32.23 0 0 0-.031 2.48c.046 2.075.285 4.126.68 6.145-.009.004-.012.008-.016.02.847 4.347 2.46 8.52 4.652 12.273 1.613 2.75 3.531 5.305 5.758 7.551.133.133 1.015.988 1.984 1.824.516.446 1.05.863 1.613 1.254.16.11.325.219.485.332.008 0 .012 0 .012.004 1.144.758 2.386 1.473 3.757 1.629"/><path style="stroke:none;fill-rule:nonzero;fill:#e5b77a;fill-opacity:1" d="M257.313 151.457c0-.004-.004-.004-.012-.004.008 0 .008 0 .012.004m-2.11-1.59a45.713 45.713 0 0 1-1.984-1.824c-2.227-2.246-4.145-4.8-5.758-7.55-2.191-3.755-3.805-7.927-4.652-12.274.847 4.347 2.46 8.52 4.652 12.273 1.613 2.75 3.531 5.305 5.758 7.551a34.94 34.94 0 0 0 1.984 1.824"/><path style="stroke:none;fill-rule:nonzero;fill:#805c4b;fill-opacity:1" d="M242.809 128.219c.004-.012.007-.016.015-.02a36.302 36.302 0 0 1-.68-6.144c.04 2.078.27 4.14.665 6.164"/><path style="stroke:none;fill-rule:nonzero;fill:#bf996c;fill-opacity:1" d="M242.809 128.219a35.728 35.728 0 0 1-.664-6.164 31.024 31.024 0 0 1 .03-2.48h-.007a34.996 34.996 0 0 0-.023 2.48c.039 2.078.27 4.14.664 6.164"/><path style="stroke:none;fill-rule:nonzero;fill:#e7e5e4;fill-opacity:1" d="M71.89 65.805c.051-.016.102-.032.16-.047 1.665-.485 3.567-.77 5.65-.817-2.15.047-4.11.348-5.81.864m.024-.106c0-.011.008-.015.008-.027 0 .012-.008.016-.008.027m.016-.07c.007-.008.007-.02.007-.024 0 .008 0 .016-.007.024m.023-.074c0-.004 0-.008.004-.016-.004.008-.004.012-.004.016m.016-.067c0-.004 0-.011.004-.015-.004.004-.004.011-.004.015m.015-.07c.004-.004.004-.004.004-.008 0 .004 0 .004-.004.008m.02-.066v-.004.004m.016-.063v-.008.008"/><path style="stroke:none;fill-rule:nonzero;fill:#9e6c50;fill-opacity:1" d="M71.89 65.805c1.7-.516 3.66-.817 5.81-.864 1.84-8.867 6.042-17.957 11.98-26.02-8.075 6.59-14.817 15.485-17.66 26.36v.008c-.004.02-.012.035-.016.059v.004c-.004.02-.012.035-.016.058 0 .004 0 .004-.004.008 0 .016-.011.039-.011.055-.004.004-.004.011-.004.015a.12.12 0 0 0-.012.051c-.004.008-.004.012-.004.016-.008.015-.012.035-.016.05 0 .004 0 .016-.007.024 0 .012-.004.027-.008.043 0 .012-.008.016-.008.027-.004.008-.004.028-.008.035a.454.454 0 0 0-.015.07"/><path style="stroke:none;fill-rule:nonzero;fill:#3d3b40;fill-opacity:1" d="M72.05 65.758c1.66-.485 3.571-.754 5.65-.801v-.016c-2.083.047-3.985.332-5.65.817"/><path style="stroke:none;fill-rule:nonzero;fill:#9e6c50;fill-opacity:1" d="M150.129 104.25c2.648-1.773 5.781-3.98 8.398-6.148-3.46 1.746-7.164 3.144-10.851 4.406.89.437 1.703 1.027 2.453 1.742"/><path style="stroke:none;fill-rule:nonzero;fill:#93664f;fill-opacity:1" d="M115.371 116.184c6.508-.258 14.012-1.813 20.445-4.172h.008c.016-.004.031-.012.047-.02.008 0 .016 0 .02-.008a.145.145 0 0 1 .035-.007c.012-.008.015-.012.027-.012.012-.004.02-.004.031-.012.012-.004.02-.012.032-.016.011 0 .015-.003.02-.003l.042-.016c.008 0 .012-.008.016-.008.015-.004.039-.015.054-.02 3.157-1.18 6.043-2.546 8.407-4.05.55-.344 2.793-1.727 5.574-3.59-.75-.715-1.563-1.305-2.453-1.742-2.88.988-5.754 1.894-8.496 2.808-8.504 2.832-17.672 3.563-26.711 3.563-1.258 0-2.508-.012-3.758-.04-1.535 1.087-3.375 2.036-5.563 2.813h-.011c-.004.008-.008.008-.016.008-.293.106-.59.203-.894.305 7.109 2.66 12.761 4.09 13.144 4.219"/><path style="stroke:none;fill-rule:nonzero;fill:#bf996c;fill-opacity:1" d="M135.816 112.012h.008-.008m.055-.02c.008 0 .016 0 .02-.008-.004.008-.012.008-.02.008m.055-.015c.012-.008.015-.008.027-.012-.012 0-.016.004-.027.012m.058-.024c.012-.004.02-.012.032-.016-.012.004-.02.012-.032.016m.051-.02c.02-.007.035-.011.043-.015l-.043.016m.059-.024c.015-.004.039-.015.054-.02-.015.005-.039.016-.054.02m.054-.02c3.157-1.18 6.043-2.546 8.407-4.05-2.364 1.504-5.25 2.87-8.407 4.05"/><path style="stroke:none;fill-rule:nonzero;fill:#3d3b40;fill-opacity:1" d="M103.121 111.66c.008 0 .012 0 .016-.008-.004.008-.008.008-.016.008m.027-.008c2.188-.777 4.028-1.726 5.563-2.812h-.008c-1.531 1.086-3.371 2.035-5.555 2.812"/><path style="stroke:none;fill-rule:nonzero;fill:#a89a8b;fill-opacity:1" d="m172.813 191.3.16-.019.148-.047.05-.125c.036-.226.02-.675.005-1.023-.02-.602-.051-1.352.043-2.223.261-2.48 1.058-17.468 1.011-20.703a1.812 1.812 0 0 1 .098-.637.705.705 0 0 1 .102-.21c.074-.141.152-.27.254-.372.261-.27.605-.402.964-.402.434 0 .903.2 1.274.594 3.293 3.347 12.215 17.328 12.578 17.898.11.156.309.336.348.36l.136-.125.09-.106.02-.05c-.031-.169-.356-.618-.594-.95-.36-.488-.797-1.094-1.207-1.87-.219-.427-.977-1.427-1.852-2.583-2.336-3.098-5.75-7.965-7.722-12.258-.762-1.644-1.547-3.726-2.746-4.531-1.203-.805-1.817-.441-5.457-2.113-3.063-1.407-4.559-2.446-5.836-2.446-.118 0-.227.008-.336.024-1.36.199-1.89 1.61-3.149 2.703-1.992 1.742-20.539 7.156-24.257 8.23a2.264 2.264 0 0 0-.458.211l.075.172c.062.13.11.164.132.164h.04c.226 0 .62-.133 1.027-.254.578-.172 1.293-.386 2.156-.52 1.5-.218 9.29-2.66 14.98-4.44 3.337-1.047 6.223-1.954 7.376-2.27.168-.047.336-.066.496-.066.523 0 1 .226 1.293.636.316.434.379 1.024.18 1.61a1.068 1.068 0 0 1-.204.355c-4.18 4.781-16.054 15.844-16.554 16.309l-.293.398.148.117.16.09c.16-.047.559-.457.852-.758.418-.425.937-.965 1.633-1.492.859-.652 3.582-3.105 6.46-5.691 3.72-3.344 7.567-6.801 9.06-7.914.358-.274.706-.332.925-.332.723 0 1.3.562 1.402 1.468.07 2.801-7.39 19.157-8.867 22.368-.074.18-.117.449-.11.496 0 0 .04.03.176.05l.18.024.063-.09.09-.152.019-.047c.047-.106.098-.223.145-.348.23-.566.468-1.293.89-2.097.059-.11.117-.223.18-.336.187-.336.508-.95.914-1.747l.191-.378c.278-.543.582-1.153.91-1.809 1.989-3.992 4.793-9.762 6.25-12.957.008-.012.008-.016.012-.024v-.003a44.46 44.46 0 0 0 .754-1.711v-.004l.008-.004c0-.008.004-.012.004-.016.035-.09.11-.27.203-.39.305-.512.703-.786 1.187-.786.313 0 .887.122 1.274.922l.062.153c1.04 3.406.41 21.578.336 23.597 0 .14.067.434.09.48h.028"/><path style="stroke:none;fill-rule:nonzero;fill:#80746b;fill-opacity:1" d="M159.52 188.41c.128-.308.261-.668.421-1.058l.137-.336.117-.262c.07-.14.137-.293.215-.441-.422.804-.66 1.53-.89 2.097m2.175-4.558.035-.07a332.06 332.06 0 0 0-.035.07m7.16-14.766c0-.012.008-.016.012-.024-.004.008-.004.012-.012.024m.766-1.742.008-.004-.008.004m.012-.02a1.99 1.99 0 0 1 .203-.39c-.094.12-.168.3-.203.39M174.328 166.523c.012-.015.016-.035.024-.05l.066-.133c.004-.012.012-.024.012-.028a.705.705 0 0 0-.102.211"/><path style="stroke:none;fill-rule:nonzero;fill:#867b70;fill-opacity:1" d="M188.902 185.035c.11 0 .223-.023.34-.062-.258-.223-.418-.461-.418-.461s-10.758-17.075-13.304-17.688c3.375 3.715 11.503 16.434 12.09 17.348l.003.004v.008c.004 0 .004.004.004.004l.008.003v.008c.004 0 .004 0 .004.004s.004.004.004.012c.008 0 .008 0 .008.004v.004c.02.027.558.812 1.261.812"/><path style="stroke:none;fill-rule:nonzero;fill:#6a605a;fill-opacity:1" d="M187.64 184.223v-.004.004m0-.004c0-.004 0-.004-.007-.004.008 0 .008 0 .008.004m-.012-.016c0-.004 0-.004-.004-.004.004 0 .004 0 .004.004m-.004-.012-.008-.004.008.004m-.008-.004s0-.003-.004-.003c.004 0 .004.004.004.004m-.004-.012-.004-.004.004.004m-.004-.004c-.586-.914-8.714-13.633-12.09-17.348.657.723 1.5 1.797 2.434 3.059 3.832 5.18 9.184 13.55 9.656 14.289"/><path style="stroke:none;fill-rule:nonzero;fill:#645c56;fill-opacity:1" d="M177.953 169.883c-.933-1.262-1.777-2.336-2.433-3.059.656.723 1.5 1.797 2.433 3.059"/><path style="stroke:none;fill-rule:nonzero;fill:#867b70;fill-opacity:1" d="M171.879 191.95c.05 0 .105 0 .16-.005.066-.011.129-.027.195-.043-.398-.457-.398-1.203-.398-1.203s.394-13.07-1.254-22.441c.246 1.922.328 5.324.328 8.894-.004 6.23-.246 12.977-.258 13.246v.012c0 .008.008 1.399 1.016 1.535v-.011c.07.011.137.015.21.015"/><path style="stroke:none;fill-rule:nonzero;fill:#6a605a;fill-opacity:1" d="M170.652 190.41v-.012.012m0-.012c.012-.27.254-7.015.258-13.246 0-3.57-.082-6.972-.328-8.894-.008-.02-.008-.043-.012-.063.696 5.184.098 21.778.082 22.203"/><path style="stroke:none;fill-rule:nonzero;fill:#7c746b;fill-opacity:1" d="M171.832 191.953c.066 0 .137-.004.207-.008-.055.004-.11.004-.16.004-.074 0-.14-.004-.211-.015v.011c.055.008.105.008.164.008"/><path style="stroke:none;fill-rule:nonzero;fill:#88614d;fill-opacity:1" d="M163.957 154.504c-.633-.691-.793-1.106-.793-1.106s.152.415.793 1.106"/><path style="stroke:none;fill-rule:nonzero;fill:#867b70;fill-opacity:1" d="M135.71 169.516c.13 0 .255-.016.395-.043a1.4 1.4 0 0 1-.277-.38c-.797-1.448 1.043-1.921 1.043-1.921s21.91-6.332 23.832-8.004c1.367-1.195 2.637-3.457 3.254-4.664-.64-.691-.793-1.106-.793-1.106s-1.723 3.801-3.644 5.473c-1.918 1.672-23.833 8.012-23.833 8.012s-1.242.312-1.242 1.238c0 .195.059.426.2.684.195.347.406.547.66.64a1.147 1.147 0 0 0 .406.07"/><path style="stroke:none;fill-rule:nonzero;fill:#645c56;fill-opacity:1" d="M135.598 169.512"/><path style="stroke:none;fill-rule:nonzero;fill:#867b70;fill-opacity:1" d="M146.523 181.457a.951.951 0 0 0 .301-.047c-1.14-.883.13-2.082.13-2.082s16.316-14.57 15.355-16.91v.07a.963.963 0 0 1-.055.317c-4.195 4.793-16.484 16.23-16.484 16.23s-.606.578-.61 1.219c0 .332.156.672.621.973a1.89 1.89 0 0 0 .164.094l.008-.016c.211.105.395.152.57.152"/><path style="stroke:none;fill-rule:nonzero;fill:#6a605a;fill-opacity:1" d="M145.8 181.238c-.003 0-.015-.008-.019-.011-.465-.301-.62-.641-.62-.973 0 .332.155.672.62.973.004.003.016.011.02.011m16.453-18.433a.963.963 0 0 0 .055-.317v-.07l-.008-.008c.015.117 0 .25-.047.395"/><path style="stroke:none;fill-rule:nonzero;fill:#7c746b;fill-opacity:1" d="M146.504 181.469c.11 0 .219-.016.324-.055l-.004-.004a.951.951 0 0 1-.3.047c-.176 0-.36-.047-.57-.152l-.009.015c.203.106.387.149.559.149"/><path style="stroke:none;fill-rule:nonzero;fill:#867b70;fill-opacity:1" d="M158.188 189.688c.078 0 .152-.004.218-.016-.707-.567-.226-1.719-.226-1.719s8.797-20.156 7.562-21.777c-.648 3.875-8.613 21.187-8.746 21.48 0 0-.172.403-.172.848 0 .36.11.746.508.98 0 0 0-.007.004-.011.137.082.305.152.527.187h.016c.055.012.11.016.16.024.055.004.102.004.149.004"/><path style="stroke:none;fill-rule:nonzero;fill:#6a605a;fill-opacity:1" d="M157.867 189.66h-.004.004m-.535-.176c-.398-.234-.508-.62-.508-.98 0 .36.11.746.508.98m-.336-1.828c.133-.293 8.098-17.605 8.746-21.48 0 0 0-.004-.004-.004-.636 3.844-8.61 21.191-8.742 21.484"/><path style="stroke:none;fill-rule:nonzero;fill:#7c746b;fill-opacity:1" d="M157.879 189.66h-.012.012m-.016 0a1.434 1.434 0 0 1-.527-.187c-.004.004-.004.011-.004.011.14.078.316.141.531.176"/><path style="stroke:none;fill-rule:nonzero;fill:#645c56;fill-opacity:1" d="M158.04 189.684c-.052-.008-.106-.012-.161-.024h-.012.012c.055.012.11.016.16.024m-.176-.024"/></svg>